<svg xmlns="http://www.w3.org/2000/svg" width="4610" height="1215" fill="none"><g clip-path="url(#a)"><path fill="#fff" d="M0 0h4610v1215H0z"/><path fill="#000" d="M1436.5 826c-28 0-50-7.667-66-23s-24-36.333-24-63c0-3.667.33-9.167 1-16.5l19-153.5c3.67-31.333 15.83-56.167 36.5-74.5s46.33-27.5 77-27.5c28 0 50 7.667 66 23 16.33 15 24.5 35.667 24.5 62 0 3.333-.33 9-1 17l-.5 4.5c-.33 1.667-1.17 3.167-2.5 4.5-1 1-2.33 1.5-4 1.5l-69.5 3c-3.67 0-5.33-2-5-6l2-13.5c.67-7.667-.67-13.667-4-18-3.33-4.667-8.17-7-14.5-7s-11.67 2.333-16 7c-4.33 4.333-7 10.333-8 18L1427 730.5c-.67 7.333.5 13.333 3.5 18 3.33 4.333 8.17 6.5 14.5 6.5s11.67-2.167 16-6.5c4.67-4.667 7.5-10.667 8.5-18l1.5-14.5c.33-1.667 1-3 2-4 1.33-1.333 2.83-2 4.5-2l68.5 3c3.67 0 5.5 2 5.5 6l-1 4.5c-3.67 31-16 55.833-37 74.5-20.67 18.667-46.33 28-77 28zm136.53-4c-1.67 0-3-.5-4-1.5-1-1.333-1.34-2.833-1-4.5l41.5-338c.33-1.667 1-3 2-4 1.33-1.333 2.83-2 4.5-2h69c1.66 0 3 .667 4 2 1 1 1.33 2.333 1 4l-33 270.5c-.67 1.667 0 2.5 2 2.5h99c1.66 0 3 .667 4 2 1 1 1.33 2.333 1 4l-7.5 59c0 1.667-.67 3.167-2 4.5-1.34 1-2.84 1.5-4.5 1.5h-176zm211.42 0c-1.66 0-3-.5-4-1.5-1-1.333-1.33-2.833-1-4.5l41.5-338c.34-1.667 1-3 2-4 1.34-1.333 2.84-2 4.5-2h69c1.67 0 3 .667 4 2 1 1 1.34 2.333 1 4l-41.5 338c-.33 1.667-1.16 3.167-2.5 4.5-1 1-2.33 1.5-4 1.5h-69zm308.77-346c1.34-2.667 3.84-4 7.5-4h67.5c1.67 0 3 .667 4 2 1 1 1.34 2.333 1 4l-41.5 338c-.33 1.667-1.16 3.167-2.5 4.5-1 1-2.33 1.5-4 1.5h-69c-1.66 0-3-.5-4-1.5-1-1.333-1.33-2.833-1-4.5l26.5-214.5c.34-1.333 0-2-1-2-.66-.333-1.33 0-2 1l-41.5 61c-1.33 2.667-2.33 4-3 4-1 0-2-1.333-3-4l-26.5-61c-.66-1-1.33-1.5-2-1.5-.33 0-.66.667-1 2l-26.5 215c-.33 1.667-1.16 3.167-2.5 4.5-1 1-2.33 1.5-4 1.5h-69c-1.66 0-3-.5-4-1.5-1-1.333-1.33-2.833-1-4.5l41.5-338c.34-1.667 1-3 2-4 1.34-1.333 2.84-2 4.5-2h68c3 0 5.34 1.333 7 4l29.5 72.5c1 1.333 2 1.333 3 0l47-72.5zm287.01 246.5c-3.33 32-15.67 56.667-37 74-21 17-46.5 25.5-76.5 25.5h-98c-1.67 0-3-.5-4-1.5-1-1.333-1.33-2.833-1-4.5l41.5-338c.33-1.667 1-3 2-4 1.33-1.333 2.83-2 4.5-2h85.5c30.33 0 54 6.667 71 20 17.33 13.333 26 33.333 26 60 0 7.333-.33 13-1 17-4 32-17 55.5-39 70.5-1.67 1-2 2-1 3 18.67 15.333 28 36.667 28 64 0 3.333-.33 8.667-1 16zm-100-179.5c-1.33 0-2.33.833-3 2.5l-7.5 64c-.67 1.667 0 2.5 2 2.5h9c10.33 0 18.33-3.667 24-11 6-7.667 9-18.167 9-31.5 0-8.667-2.17-15.167-6.5-19.5-4-4.667-10-7-18-7h-9zm-11 207.5c9.33 0 17-4.167 23-12.5 6.33-8.333 9.5-20 9.5-35 0-9.667-2-17.333-6-23-4-5.667-9.5-8.5-16.5-8.5h-15c-1.67 0-2.5.833-2.5 2.5l-9 74c-.67 1.667 0 2.5 2 2.5h14.5zm130.95 71.5c-1.67 0-3-.5-4-1.5-1-1.333-1.34-2.833-1-4.5l41.5-338c.33-1.667 1-3 2-4 1.33-1.333 2.83-2 4.5-2h69c1.66 0 3 .667 4 2 1 1 1.33 2.333 1 4l-41.5 338c-.34 1.667-1.17 3.167-2.5 4.5-1 1-2.34 1.5-4 1.5h-69zm289.77-344c.33-1.667 1-3 2-4 1.33-1.333 2.83-2 4.5-2h68c1.66 0 3 .667 4 2 1 1 1.33 2.333 1 4l-41.5 338c0 1.667-.67 3.167-2 4.5-1.34 1-2.84 1.5-4.5 1.5h-77c-3.34 0-5.34-1.667-6-5l-27-174c0-1-.5-1.5-1.5-1.5-.67-.333-1 .167-1 1.5l-20.5 173c-.34 1.667-1.17 3.167-2.5 4.5-1 1-2.34 1.5-4 1.5h-68c-1.67 0-3-.5-4-1.5-1-1.333-1.34-2.833-1-4.5l41.5-338c.33-1.667 1-3 2-4 1.33-1.333 2.83-2 4.5-2h76c3.66 0 5.83 1.667 6.5 5l27 175c0 1 .33 1.5 1 1.5 1 0 1.66-.667 2-2l20.5-173.5zm168.43 348c-28 0-50.17-7.333-66.5-22-16-15-24-35.333-24-61 0-3 .33-8.167 1-15.5l20-161.5c3.33-30 15.33-53.833 36-71.5 20.66-17.667 46.33-26.5 77-26.5 28 0 50.16 7.5 66.5 22.5 16.33 15 24.5 35.333 24.5 61 0 3-.34 8.167-1 15.5l-2.5 18.5c-.34 1.667-1.17 3.167-2.5 4.5-1 1-2.34 1.5-4 1.5h-69c-1.67 0-3-.5-4-1.5-1-1.333-1.34-2.833-1-4.5l2.5-19.5.5-5c0-6.667-1.67-12-5-16-3.34-4-7.84-6-13.5-6-6.34 0-11.67 2.5-16 7.5-4.34 5-7 11.5-8 19.5l-20 162-.5 5.5c0 6.667 1.66 12 5 16 3.33 3.667 7.66 5.5 13 5.5 6.33 0 11.66-2.5 16-7.5 4.66-5 7.5-11.5 8.5-19.5l4-32c.66-1.667 0-2.5-2-2.5h-12.5c-1.67 0-3-.5-4-1.5-1-1.333-1.34-2.833-1-4.5l6.49-53c0-1.667.67-3 2.01-4 1.33-1.333 2.83-2 4.5-2h89.5c1.66 0 3 .667 4 2 1 1 1.33 2.333 1 4l-11.5 93c-3.34 30-15.5 54-36.5 72-20.67 17.667-46.34 26.5-77 26.5zm376.16-4c-3.67 0-5.5-1.833-5.5-5.5l-1-43.5c.33-.667.16-1.167-.5-1.5-.67-.667-1.34-1-2-1h-52.5c-2 0-3 .833-3 2.5l-11 43.5c-1 3.667-3.34 5.5-7 5.5h-69c-4 0-5.34-2.167-4-6.5l111.5-338c1-3.667 3.33-5.5 7-5.5h79c4 0 6 1.833 6 5.5l28 338v1.5c0 3.333-1.84 5-5.5 5h-70.5zm-45.5-118c0 1.667.5 2.5 1.5 2.5h32.5c1.66 0 2.5-.833 2.5-2.5l-3.5-114c0-1.333-.34-2-1-2-.67 0-1.34.667-2 2l-30 114zm361.28-232c1.67 0 3 .667 4 2 1 1 1.33 2.333 1 4l-7 59c-.33 1.667-1.17 3.167-2.5 4.5-1 1-2.33 1.5-4 1.5h-60.5c-1.67 0-2.5.833-2.5 2.5l-33.5 270.5c0 1.667-.67 3.167-2 4.5-1.33 1-2.83 1.5-4.5 1.5h-68.5c-3.67 0-5.5-2-5.5-6l33.5-270.5c0-1.667-.67-2.5-2-2.5h-58c-1.67 0-3-.5-4-1.5-1-1.333-1.33-2.833-1-4.5l7-59c.33-1.667 1.17-3 2.5-4 1.33-1.333 2.83-2 4.5-2h203zm-5.12 350c-1.67 0-3-.5-4-1.5-1-1.333-1.34-2.833-1-4.5l41.5-338c.33-1.667 1-3 2-4 1.33-1.333 2.83-2 4.5-2h69c1.66 0 3 .667 4 2 1 1 1.33 2.333 1 4l-33 270.5c-.67 1.667 0 2.5 2 2.5h99c1.66 0 3 .667 4 2 1 1 1.33 2.333 1 4l-7.5 59c0 1.667-.67 3.167-2 4.5-1.34 1-2.84 1.5-4.5 1.5h-176zm356.33 0c-3.67 0-5.5-1.833-5.5-5.5l-1-43.5c.33-.667.16-1.167-.5-1.5-.67-.667-1.34-1-2-1h-52.5c-2 0-3 .833-3 2.5l-11 43.5c-1 3.667-3.34 5.5-7 5.5h-69c-4 0-5.34-2.167-4-6.5l111.5-338c1-3.667 3.33-5.5 7-5.5h79c4 0 6 1.833 6 5.5l28 338v1.5c0 3.333-1.84 5-5.5 5h-70.5zm-45.5-118c0 1.667.5 2.5 1.5 2.5h32.5c1.66 0 2.5-.833 2.5-2.5l-3.5-114c0-1.333-.34-2-1-2-.67 0-1.34.667-2 2l-30 114zm226.4 122c-27.34 0-49-7.167-65-21.5-15.67-14.667-23.5-34-23.5-58 0-3 .33-7.5 1-13.5l1.5-15.5c.33-1.667 1.16-3 2.5-4 1.33-1.333 2.83-2 4.5-2h67.5c3.66 0 5.5 2 5.5 6l-1.5 11.5-.5 5c0 6.333 1.5 11.5 4.5 15.5 3.33 3.667 7.5 5.5 12.5 5.5 6.33 0 11.66-2.5 16-7.5 4.66-5.333 7-12.167 7-20.5 0-6.333-2.67-12.5-8-18.5-5-6-14.84-15-29.5-27-14-11.333-25.17-21.167-33.5-29.5-8.34-8.333-15.67-18.5-22-30.5-6-12.333-9-26.333-9-42 0-21.667 4.83-41 14.5-58 9.66-17 23-30.167 40-39.5 17-9.333 36.16-14 57.5-14 27 0 48.5 7.667 64.5 23 16 15 24 35.167 24 60.5 0 3-.34 7.833-1 14.5l-1.5 12c-.34 1.667-1.17 3.167-2.5 4.5-1.34 1-2.84 1.5-4.5 1.5h-67c-3.67 0-5.5-2-5.5-6l2-14c.66-7.333-.67-13.333-4-18-3-4.667-7.5-7-13.5-7-6.34 0-11.84 2.833-16.5 8.5-4.34 5.667-6.5 12.833-6.5 21.5 0 7 2.5 13.833 7.5 20.5 5.33 6.333 14.83 15.167 28.5 26.5 17 14.333 29.66 26 38 35 8.66 8.667 15.5 18.167 20.5 28.5 5.33 10 8 21.5 8 34.5 0 2.667-.34 7.333-1 14-3.67 30-15.84 53.833-36.5 71.5-20.34 17.667-45.34 26.5-75 26.5z"/><path fill="#000" d="M1436.5 826c-28 0-50-7.667-66-23s-24-36.333-24-63c0-3.667.33-9.167 1-16.5l19-153.5c3.67-31.333 15.83-56.167 36.5-74.5s46.33-27.5 77-27.5c28 0 50 7.667 66 23 16.33 15 24.5 35.667 24.5 62 0 3.333-.33 9-1 17l-.5 4.5c-.33 1.667-1.17 3.167-2.5 4.5-1 1-2.33 1.5-4 1.5l-69.5 3c-3.67 0-5.33-2-5-6l2-13.5c.67-7.667-.67-13.667-4-18-3.33-4.667-8.17-7-14.5-7s-11.67 2.333-16 7c-4.33 4.333-7 10.333-8 18L1427 730.5c-.67 7.333.5 13.333 3.5 18 3.33 4.333 8.17 6.5 14.5 6.5s11.67-2.167 16-6.5c4.67-4.667 7.5-10.667 8.5-18l1.5-14.5c.33-1.667 1-3 2-4 1.33-1.333 2.83-2 4.5-2l68.5 3c3.67 0 5.5 2 5.5 6l-1 4.5c-3.67 31-16 55.833-37 74.5-20.67 18.667-46.33 28-77 28zm136.53-4c-1.67 0-3-.5-4-1.5-1-1.333-1.34-2.833-1-4.5l41.5-338c.33-1.667 1-3 2-4 1.33-1.333 2.83-2 4.5-2h69c1.66 0 3 .667 4 2 1 1 1.33 2.333 1 4l-33 270.5c-.67 1.667 0 2.5 2 2.5h99c1.66 0 3 .667 4 2 1 1 1.33 2.333 1 4l-7.5 59c0 1.667-.67 3.167-2 4.5-1.34 1-2.84 1.5-4.5 1.5h-176zm211.42 0c-1.66 0-3-.5-4-1.5-1-1.333-1.33-2.833-1-4.5l41.5-338c.34-1.667 1-3 2-4 1.34-1.333 2.84-2 4.5-2h69c1.67 0 3 .667 4 2 1 1 1.34 2.333 1 4l-41.5 338c-.33 1.667-1.16 3.167-2.5 4.5-1 1-2.33 1.5-4 1.5h-69zm308.77-346c1.34-2.667 3.84-4 7.5-4h67.5c1.67 0 3 .667 4 2 1 1 1.34 2.333 1 4l-41.5 338c-.33 1.667-1.16 3.167-2.5 4.5-1 1-2.33 1.5-4 1.5h-69c-1.66 0-3-.5-4-1.5-1-1.333-1.33-2.833-1-4.5l26.5-214.5c.34-1.333 0-2-1-2-.66-.333-1.33 0-2 1l-41.5 61c-1.33 2.667-2.33 4-3 4-1 0-2-1.333-3-4l-26.5-61c-.66-1-1.33-1.5-2-1.5-.33 0-.66.667-1 2l-26.5 215c-.33 1.667-1.16 3.167-2.5 4.5-1 1-2.33 1.5-4 1.5h-69c-1.66 0-3-.5-4-1.5-1-1.333-1.33-2.833-1-4.5l41.5-338c.34-1.667 1-3 2-4 1.34-1.333 2.84-2 4.5-2h68c3 0 5.34 1.333 7 4l29.5 72.5c1 1.333 2 1.333 3 0l47-72.5zm287.01 246.5c-3.33 32-15.67 56.667-37 74-21 17-46.5 25.5-76.5 25.5h-98c-1.67 0-3-.5-4-1.5-1-1.333-1.33-2.833-1-4.5l41.5-338c.33-1.667 1-3 2-4 1.33-1.333 2.83-2 4.5-2h85.5c30.33 0 54 6.667 71 20 17.33 13.333 26 33.333 26 60 0 7.333-.33 13-1 17-4 32-17 55.5-39 70.5-1.67 1-2 2-1 3 18.67 15.333 28 36.667 28 64 0 3.333-.33 8.667-1 16zm-100-179.5c-1.33 0-2.33.833-3 2.5l-7.5 64c-.67 1.667 0 2.5 2 2.5h9c10.33 0 18.33-3.667 24-11 6-7.667 9-18.167 9-31.5 0-8.667-2.17-15.167-6.5-19.5-4-4.667-10-7-18-7h-9zm-11 207.5c9.33 0 17-4.167 23-12.5 6.33-8.333 9.5-20 9.5-35 0-9.667-2-17.333-6-23-4-5.667-9.5-8.5-16.5-8.5h-15c-1.67 0-2.5.833-2.5 2.5l-9 74c-.67 1.667 0 2.5 2 2.5h14.5zm130.95 71.5c-1.67 0-3-.5-4-1.5-1-1.333-1.34-2.833-1-4.5l41.5-338c.33-1.667 1-3 2-4 1.33-1.333 2.83-2 4.5-2h69c1.66 0 3 .667 4 2 1 1 1.33 2.333 1 4l-41.5 338c-.34 1.667-1.17 3.167-2.5 4.5-1 1-2.34 1.5-4 1.5h-69zm289.77-344c.33-1.667 1-3 2-4 1.33-1.333 2.83-2 4.5-2h68c1.66 0 3 .667 4 2 1 1 1.33 2.333 1 4l-41.5 338c0 1.667-.67 3.167-2 4.5-1.34 1-2.84 1.5-4.5 1.5h-77c-3.34 0-5.34-1.667-6-5l-27-174c0-1-.5-1.5-1.5-1.5-.67-.333-1 .167-1 1.5l-20.5 173c-.34 1.667-1.17 3.167-2.5 4.5-1 1-2.34 1.5-4 1.5h-68c-1.67 0-3-.5-4-1.5-1-1.333-1.34-2.833-1-4.5l41.5-338c.33-1.667 1-3 2-4 1.33-1.333 2.83-2 4.5-2h76c3.66 0 5.83 1.667 6.5 5l27 175c0 1 .33 1.5 1 1.5 1 0 1.66-.667 2-2l20.5-173.5zm168.43 348c-28 0-50.17-7.333-66.5-22-16-15-24-35.333-24-61 0-3 .33-8.167 1-15.5l20-161.5c3.33-30 15.33-53.833 36-71.5 20.66-17.667 46.33-26.5 77-26.5 28 0 50.16 7.5 66.5 22.5 16.33 15 24.5 35.333 24.5 61 0 3-.34 8.167-1 15.5l-2.5 18.5c-.34 1.667-1.17 3.167-2.5 4.5-1 1-2.34 1.5-4 1.5h-69c-1.67 0-3-.5-4-1.5-1-1.333-1.34-2.833-1-4.5l2.5-19.5.5-5c0-6.667-1.67-12-5-16-3.34-4-7.84-6-13.5-6-6.34 0-11.67 2.5-16 7.5-4.34 5-7 11.5-8 19.5l-20 162-.5 5.5c0 6.667 1.66 12 5 16 3.33 3.667 7.66 5.5 13 5.5 6.33 0 11.66-2.5 16-7.5 4.66-5 7.5-11.5 8.5-19.5l4-32c.66-1.667 0-2.5-2-2.5h-12.5c-1.67 0-3-.5-4-1.5-1-1.333-1.34-2.833-1-4.5l6.49-53c0-1.667.67-3 2.01-4 1.33-1.333 2.83-2 4.5-2h89.5c1.66 0 3 .667 4 2 1 1 1.33 2.333 1 4l-11.5 93c-3.34 30-15.5 54-36.5 72-20.67 17.667-46.34 26.5-77 26.5zm376.16-4c-3.67 0-5.5-1.833-5.5-5.5l-1-43.5c.33-.667.16-1.167-.5-1.5-.67-.667-1.34-1-2-1h-52.5c-2 0-3 .833-3 2.5l-11 43.5c-1 3.667-3.34 5.5-7 5.5h-69c-4 0-5.34-2.167-4-6.5l111.5-338c1-3.667 3.33-5.5 7-5.5h79c4 0 6 1.833 6 5.5l28 338v1.5c0 3.333-1.84 5-5.5 5h-70.5zm-45.5-118c0 1.667.5 2.5 1.5 2.5h32.5c1.66 0 2.5-.833 2.5-2.5l-3.5-114c0-1.333-.34-2-1-2-.67 0-1.34.667-2 2l-30 114zm361.28-232c1.67 0 3 .667 4 2 1 1 1.33 2.333 1 4l-7 59c-.33 1.667-1.17 3.167-2.5 4.5-1 1-2.33 1.5-4 1.5h-60.5c-1.67 0-2.5.833-2.5 2.5l-33.5 270.5c0 1.667-.67 3.167-2 4.5-1.33 1-2.83 1.5-4.5 1.5h-68.5c-3.67 0-5.5-2-5.5-6l33.5-270.5c0-1.667-.67-2.5-2-2.5h-58c-1.67 0-3-.5-4-1.5-1-1.333-1.33-2.833-1-4.5l7-59c.33-1.667 1.17-3 2.5-4 1.33-1.333 2.83-2 4.5-2h203zm-5.12 350c-1.67 0-3-.5-4-1.5-1-1.333-1.34-2.833-1-4.5l41.5-338c.33-1.667 1-3 2-4 1.33-1.333 2.83-2 4.5-2h69c1.66 0 3 .667 4 2 1 1 1.33 2.333 1 4l-33 270.5c-.67 1.667 0 2.5 2 2.5h99c1.66 0 3 .667 4 2 1 1 1.33 2.333 1 4l-7.5 59c0 1.667-.67 3.167-2 4.5-1.34 1-2.84 1.5-4.5 1.5h-176zm356.33 0c-3.67 0-5.5-1.833-5.5-5.5l-1-43.5c.33-.667.16-1.167-.5-1.5-.67-.667-1.34-1-2-1h-52.5c-2 0-3 .833-3 2.5l-11 43.5c-1 3.667-3.34 5.5-7 5.5h-69c-4 0-5.34-2.167-4-6.5l111.5-338c1-3.667 3.33-5.5 7-5.5h79c4 0 6 1.833 6 5.5l28 338v1.5c0 3.333-1.84 5-5.5 5h-70.5zm-45.5-118c0 1.667.5 2.5 1.5 2.5h32.5c1.66 0 2.5-.833 2.5-2.5l-3.5-114c0-1.333-.34-2-1-2-.67 0-1.34.667-2 2l-30 114zm226.4 122c-27.34 0-49-7.167-65-21.5-15.67-14.667-23.5-34-23.5-58 0-3 .33-7.5 1-13.5l1.5-15.5c.33-1.667 1.16-3 2.5-4 1.33-1.333 2.83-2 4.5-2h67.5c3.66 0 5.5 2 5.5 6l-1.5 11.5-.5 5c0 6.333 1.5 11.5 4.5 15.5 3.33 3.667 7.5 5.5 12.5 5.5 6.33 0 11.66-2.5 16-7.5 4.66-5.333 7-12.167 7-20.5 0-6.333-2.67-12.5-8-18.5-5-6-14.84-15-29.5-27-14-11.333-25.17-21.167-33.5-29.5-8.34-8.333-15.67-18.5-22-30.5-6-12.333-9-26.333-9-42 0-21.667 4.83-41 14.5-58 9.66-17 23-30.167 40-39.5 17-9.333 36.16-14 57.5-14 27 0 48.5 7.667 64.5 23 16 15 24 35.167 24 60.5 0 3-.34 7.833-1 14.5l-1.5 12c-.34 1.667-1.17 3.167-2.5 4.5-1.34 1-2.84 1.5-4.5 1.5h-67c-3.67 0-5.5-2-5.5-6l2-14c.66-7.333-.67-13.333-4-18-3-4.667-7.5-7-13.5-7-6.34 0-11.84 2.833-16.5 8.5-4.34 5.667-6.5 12.833-6.5 21.5 0 7 2.5 13.833 7.5 20.5 5.33 6.333 14.83 15.167 28.5 26.5 17 14.333 29.66 26 38 35 8.66 8.667 15.5 18.167 20.5 28.5 5.33 10 8 21.5 8 34.5 0 2.667-.34 7.333-1 14-3.67 30-15.84 53.833-36.5 71.5-20.34 17.667-45.34 26.5-75 26.5z"/><path stroke="#000" stroke-linecap="round" stroke-miterlimit="3.999" stroke-width="37.103" d="M800.926 625.739 660.6 397.071c-8.777-14.302-29.739-13.762-37.767.974L379.82 844.097c-7.923 14.543 2.604 32.267 19.166 32.267h230.021c7.4 0 14.297-3.75 18.319-9.962l193.86-299.337c8.598-13.276 28.021-13.283 36.629-.014l178.785 275.61c9.42 14.52-1 33.703-18.3 33.703H821.296"/><circle cx="984.984" cy="395.12" r="76.024" stroke="#000" stroke-width="34.193"/></g><defs><clipPath id="a"><path fill="#fff" d="M0 0h4610v1215H0z"/></clipPath></defs></svg>